<svg fill="none" xmlns="http://www.w3.org/2000/svg" viewBox="0 0 154 83"><path d="M21 16.803c10.493 0 19 9.276 19 19.788v27.19h-9.5M21 16.802c-10.493 0-19 9.276-19 19.788v27.19h9.5M21 16.802V2m-9.5 61.78h19m-19 0V81m19-17.22V81M77 16.803c10.493 0 19 9.276 19 19.788v27.19l-7.755-4.08M77 16.803c-10.493 0-19 9.276-19 19.788v27.19l6.98-4.08M77 16.803V2M64.98 59.701s6.5-2.71 11.245-2.71c4.744 0 12.02 2.71 12.02 2.71m-23.265 0V81m23.265-21.299V81M133 16.803c10.493 0 19 9.276 19 19.788v25.533a1 1 0 0 1-1.466.885l-6.289-3.308M133 16.803c-10.493 0-19 9.276-19 19.788v25.446a1 1 0 0 0 1.505.864l5.475-3.2M133 16.803V2m-12.02 57.701s6.5-2.71 11.244-2.71c4.745 0 12.021 2.71 12.021 2.71m-23.265 0V81m23.265-21.299V81M117 68s3.884-2.59 6.684-3.733c3.24-1.323 4.258-2.103 7.816-2.267 4.347-.2 7.028.677 11 2.267 2.809 1.125 7 3.732 7 3.732" stroke="#162C55" stroke-width="3" stroke-linecap="round"/></svg>