<svg fill="none" xmlns="http://www.w3.org/2000/svg" viewBox="0 0 37 73"><path d="M18.5 14.93c9.113 0 16.5 8.101 16.5 17.282v22.302a.869.869 0 0 1-1.273.773l-5.462-2.89M18.5 14.93C9.387 14.93 2 23.031 2 32.212v22.226a.868.868 0 0 0 1.307.754l4.754-2.795M18.5 14.93V2M8.061 52.397s5.645-2.368 9.765-2.368c4.121 0 10.44 2.368 10.44 2.368m-20.205 0V71m20.204-18.603V71M4.605 59.645s3.373-2.261 5.804-3.26c2.814-1.155 3.698-1.837 6.788-1.98 3.776-.175 6.104.591 9.553 1.98 2.44.983 6.079 3.26 6.079 3.26" stroke="#DF63BB" stroke-width="3" stroke-linecap="round"/></svg>