<svg fill="none" xmlns="http://www.w3.org/2000/svg" viewBox="0 0 1441 1021"><path d="m0 721.94 1441-.94M0 727.086l1441-.94M0 732.232l1441-.94M0 737.377l1441-.94M0 742.523l1441-.94M0 747.669l1441-.94M0 752.815l1441-.94M0 757.961l1441-.94M0 763.106l1441-.94M0 768.252l1441-.94M0 773.398l1441-.94M0 778.544l1441-.94M0 783.69l1441-.94M0 788.835l1441-.94M0 793.981l1441-.94M0 799.127l1441-.94M0 804.273l1441-.94M0 809.419l1441-.94M0 814.564l1441-.94M0 819.71l1441-.94M0 824.856l1441-.94M0 830.002l1441-.94M0 835.148l1441-.94M0 840.293l1441-.94M0 845.439l1441-.94M0 850.585l1441-.94M0 855.731l1441-.94M0 860.877l1441-.94M0 866.022l1441-.94M0 871.168l1441-.94M0 876.314l1441-.94M0 881.46l1441-.94M0 886.606l1441-.94M0 891.751l1441-.94M0 896.897l1441-.94M0 902.043l1441-.94M0 907.189l1441-.94M0 912.334l1441-.94M0 917.48l1441-.94M0 922.626l1441-.94M0 927.772l1441-.94M0 932.918l1441-.94M0 938.063l1441-.94M0 943.209l1441-.94M0 948.355l1441-.94M0 953.501l1441-.94M0 958.647l1441-.94M0 963.792l1441-.94M0 968.938l1441-.94M0 974.084l1441-.94M0 979.23l1441-.94M0 984.376l1441-.94M0 989.521l1441-.94M0 994.667l1441-.94M0 999.813l1441-.94M0 1004.96l1441-.94M0 1010.1l1441-.94M0 1015.25l1441-.94M0 1020.4l1441-.94M0 361.94l1441-.94M0 367.086l1441-.94M0 372.232l1441-.94M0 377.377l1441-.94M0 382.523l1441-.94M0 387.669l1441-.94M0 392.815l1441-.94M0 397.961l1441-.94M0 403.106l1441-.94M0 408.252l1441-.94M0 413.398l1441-.94M0 418.544l1441-.94M0 423.69l1441-.94M0 428.835l1441-.94M0 433.981l1441-.94M0 439.127l1441-.94M0 444.273l1441-.94M0 449.419l1441-.94M0 454.564l1441-.94M0 459.71l1441-.94M0 464.856l1441-.94M0 470.002l1441-.94M0 475.148l1441-.94M0 480.293l1441-.94M0 485.439l1441-.94M0 490.585l1441-.94M0 495.731l1441-.94M0 500.877l1441-.94M0 506.022l1441-.94M0 511.168l1441-.94M0 516.314l1441-.94M0 521.46l1441-.94M0 526.606l1441-.94M0 531.751l1441-.94M0 536.897l1441-.94M0 542.043l1441-.94M0 547.189l1441-.94M0 552.334l1441-.94M0 557.48l1441-.94M0 562.626l1441-.94M0 567.772l1441-.94M0 572.918l1441-.94M0 578.063l1441-.94M0 583.209l1441-.94M0 588.355l1441-.94M0 593.501l1441-.94M0 598.647l1441-.94M0 603.792l1441-.94M0 608.938l1441-.94M0 614.084l1441-.94M0 619.23l1441-.94M0 624.376l1441-.94M0 629.521l1441-.94M0 634.667l1441-.94M0 639.813l1441-.94M0 644.959l1441-.94M0 650.105l1441-.94M0 655.25l1441-.94M0 660.396l1441-.94M0 665.542l1441-.94M0 670.688l1441-.94M0 675.834l1441-.94M0 680.979l1441-.94M0 686.125l1441-.94M0 691.271l1441-.94M0 696.417l1441-.94M0 701.563l1441-.94M0 706.708l1441-.94M0 711.854l1441-.94M0 717l1441-.94M0 1.94 1441 1M0 7.086l1441-.94M0 12.232l1441-.94M0 17.377l1441-.94M0 22.523l1441-.94M0 27.67l1441-.94M0 32.815l1441-.94M0 37.96l1441-.94M0 43.106l1441-.94M0 48.252l1441-.94M0 53.398l1441-.94M0 58.544l1441-.94M0 63.69l1441-.94M0 68.835l1441-.94M0 73.981l1441-.94M0 79.127l1441-.94M0 84.273l1441-.94M0 89.419l1441-.94M0 94.563l1441-.94M0 99.71l1441-.94M0 104.856l1441-.94M0 110.002l1441-.94M0 115.148l1441-.94M0 120.293l1441-.94M0 125.439l1441-.94M0 130.585l1441-.94M0 135.731l1441-.94M0 140.877l1441-.94M0 146.022l1441-.94M0 151.168l1441-.94M0 156.314l1441-.94M0 161.46l1441-.94M0 166.606l1441-.941M0 171.751l1441-.94M0 176.897l1441-.94M0 182.043l1441-.94M0 187.189l1441-.94M0 192.335l1441-.941M0 197.48l1441-.94M0 202.626l1441-.94M0 207.772l1441-.94M0 212.918l1441-.94M0 218.063l1441-.94M0 223.209l1441-.94M0 228.355l1441-.94M0 233.501l1441-.94M0 238.647l1441-.94M0 243.792l1441-.94M0 248.938l1441-.94M0 254.084l1441-.94M0 259.23l1441-.94M0 264.376l1441-.94M0 269.521l1441-.94M0 274.667l1441-.94M0 279.813l1441-.94M0 284.959l1441-.94M0 290.105l1441-.94M0 295.25l1441-.94M0 300.396l1441-.94M0 305.542l1441-.94M0 310.688l1441-.94M0 315.834l1441-.94M0 320.979l1441-.94M0 326.125l1441-.94M0 331.271l1441-.94M0 336.417l1441-.94M0 341.563l1441-.94M0 346.708l1441-.94M0 351.854l1441-.94M0 357l1441-.94" stroke="#162C55" stroke-opacity=".6"/></svg>