<svg fill="none" xmlns="http://www.w3.org/2000/svg" viewBox="0 0 79 79"><path d="M77 39.5v18.75L58.25 77h-37.5L2 58.25v-37.5L20.75 2h37.5L77 20.75V39.5Z" fill="#FEFFB5"/><path d="M77 20.75v37.5L58.25 77M77 20.75 58.25 2h-37.5L2 20.75m75 0H58.25V39.5h-37.5V20.75H2m0 0v37.5L20.75 77m37.5 0h-37.5m37.5 0V58h-37.5v19m37.5-31.5h-37.5m37.5 6h-37.5M11 39.5h3.5m-3.5 6h3.5m-3.5 6h3.5m49-12H67m-3.5 6H67m-3.5 6H67m-27.5-29h4a6 6 0 0 0 0-12H36a6 6 0 0 0 0 12h3.5ZM44 67v.5a4.5 4.5 0 1 1-9 0V67a4.5 4.5 0 1 1 9 0Z" stroke="#EDE402" stroke-width="3"/></svg>